<?xml version="1.0" encoding="UTF-8"?>
<svg width="1200px" height="1275px" viewBox="0 0 1200 1275" version="1.1" xmlns="http://www.w3.org/2000/svg" xmlns:xlink="http://www.w3.org/1999/xlink">
    <!-- Generator: Sketch 62 (91390) - https://sketch.com -->
    <title>LOGO</title>
    <desc>Created with Sketch.</desc>
    <g id="Page-1" stroke="none" stroke-width="1" fill="none" fill-rule="evenodd">
        <g id="LOGO">
            <rect id="Rectangle" x="40.9090909" y="34.0909091" width="1125" height="1200"></rect>
            <path d="M1200,0 L1200,1275 L0,1275 L0,0 L1200,0 Z M1117.24138,82.2580645 L82.7586207,82.2580645 L82.7586207,1192.74194 L1117.24138,1192.74194 L1117.24138,82.2580645 Z" id="Combined-Shape" fill="#000000"></path>
            <path d="M238.636364,571.404682 L238.636364,150 L321.227741,150 L321.227741,498.561873 L522.727273,498.561873 L522.727273,571.404682 L238.636364,571.404682 Z M880.761671,150 L887.293942,150 L946.633512,150 L954.545455,150 L954.545455,566.060099 C952.787263,566.060099 950.149948,566.060099 946.633512,566.060099 L887.293942,566.060099 L879.381999,566.060099 L879.381999,527.641976 C879.381999,526.915388 879.381999,525.540659 879.381999,523.517787 C877.447972,524.995721 876.129315,526.097981 875.426028,526.824569 C854.327408,556.796304 821.888768,571.781947 778.109133,571.781947 C752.263324,571.781947 728.395869,566.605089 706.506051,556.251216 C684.616234,545.897344 667.07827,530.639235 653.891632,510.476431 C640.704995,490.313628 634.111776,465.791667 634.111776,436.909813 L634.111776,150 L636.49494,150 L642.023718,150 L701.363289,150 L709.275231,150 L709.275231,412.387607 C709.275231,440.72452 716.527773,463.066751 731.033074,479.41497 C745.538374,495.763189 765.977355,503.937176 792.350629,503.937176 C818.723904,503.937176 839.822206,495.626956 855.646171,479.006267 C871.470056,462.385577 879.381999,440.179579 879.381999,412.387607 L880.761671,150 Z M377.816999,1104.54545 C337.729623,1104.54545 303.444881,1094.0555 274.961744,1073.07529 C246.478608,1052.09508 226.962678,1023.62235 216.413369,987.656272 C208.501386,962.589002 204.545455,929.620588 204.545455,888.75004 C204.545455,851.149136 208.501386,818.180721 216.413369,789.843808 C226.962678,754.967607 246.610473,727.176051 275.357342,706.468307 C304.10421,685.760563 338.257088,675.406846 377.816999,675.406846 C417.376911,675.406846 451.925382,685.760563 481.463449,706.468307 C511.001516,727.176051 530.253717,753.33281 539.22063,784.939367 C542.092982,792.852739 544.096331,800.990442 545.230722,809.352677 C545.986982,814.927501 546.020492,818.818457 545.331249,821.025546 L469.469014,821.025546 C469.416678,820.737169 469.376683,820.516796 469.349029,820.364425 C469.018111,818.541056 468.309085,814.634303 467.221952,808.644166 C463.002228,790.116184 452.716805,774.585609 436.365375,762.051974 C420.013945,749.51834 400.234286,743.251616 377.025805,743.251616 C354.344789,743.251616 335.092588,749.51834 319.268623,762.051974 C303.444659,774.585609 293.159236,791.206049 288.412047,811.913794 C283.664881,831.531657 281.291299,857.415949 281.291299,889.567447 C281.291299,921.174004 283.664881,946.78583 288.412047,966.403693 C293.686702,988.201318 304.103989,1005.36669 319.664221,1017.90033 C335.224452,1030.43396 354.344789,1036.70068 377.025805,1036.70068 C400.234286,1036.70068 420.14581,1030.43396 436.760972,1017.90033 C453.124906,1005.55621 463.476977,989.512223 467.817483,969.76791 C467.861908,969.565825 467.927129,969.261827 468.013146,968.855913 L543.042749,968.855913 L542.045455,980.056907 C541.009647,987.206395 540.068039,991.919268 539.22063,994.195527 C530.253717,1027.43691 511.001516,1054.1386 481.463449,1074.3014 C451.925382,1094.4642 417.376911,1104.54545 377.816999,1104.54545 Z M795.289351,670.26886 C827.464746,670.26886 855.551861,676.126884 879.551541,687.843107 C903.55122,699.559331 922.012235,715.907305 934.935139,736.88752 C947.858044,757.867735 954.319399,781.70853 954.319399,808.410621 L954.319399,1092.86821 L946.407456,1092.86821 L886.276692,1092.86821 L878.364749,1092.86821 L878.364749,1055.2675 C878.364749,1052.54279 877.046105,1051.99786 874.408778,1053.63268 C860.694675,1068.34608 843.947897,1079.65343 824.167942,1087.55507 C804.387986,1095.45671 782.366633,1099.40747 758.10322,1099.40747 C719.070775,1099.40747 686.763998,1089.18998 661.181923,1068.75471 C635.599847,1048.31944 622.809,1017.39452 622.809,975.979031 C622.809,933.473661 637.182219,900.096547 665.929088,875.846688 C694.675957,851.59683 734.894597,839.472083 786.586214,839.472083 L875.199972,839.472083 C877.309834,839.472083 878.364749,838.382218 878.364749,836.202455 L878.364749,814.132469 C878.364749,790.155081 871.639665,771.491144 858.189295,758.140099 C844.738926,744.789053 824.299945,738.11363 796.87174,738.11363 C774.718189,738.11363 756.652767,742.609323 742.674932,751.600844 C728.697097,760.592364 720.125911,772.717112 716.961118,787.975449 C714.851257,798.147675 713.978468,808.216464 714.342752,818.181818 L633.261671,818.181818 C633.350546,807.809326 634.201304,796.17377 635.813946,783.275151 C635.955417,782.143607 636.103869,780.985683 636.259303,779.801381 C640.479027,747.649883 657.09394,721.356891 686.104542,700.921617 C715.115144,680.486343 751.509716,670.26886 795.289351,670.26886 Z M770.536273,1038.3355 C798.491944,1038.3355 822.754992,1030.70644 843.326146,1015.44811 C863.8973,1000.18977 874.182722,980.844665 874.182722,957.412217 L874.182722,909.185212 C874.182722,907.005449 873.127807,905.915584 871.017945,905.915584 L796.645684,905.915584 C765.525221,905.915584 740.734715,912.182308 722.273423,924.715942 C703.812131,937.249577 694.581623,954.687416 694.581623,977.029982 C694.581623,997.192786 701.570436,1012.45089 715.548272,1022.80477 C729.526107,1033.15864 747.855257,1038.3355 770.536273,1038.3355 Z" id="Luca" fill="#000000" fill-rule="nonzero"></path>
        </g>
    </g>
</svg>